<?xml version="1.0" standalone="no"?>
<!DOCTYPE svg PUBLIC "-//W3C//DTD SVG 20010904//EN"
 "http://www.w3.org/TR/2001/REC-SVG-20010904/DTD/svg10.dtd">
<svg version="1.0" xmlns="http://www.w3.org/2000/svg"
 width="500.000000pt" height="500.000000pt" viewBox="0 0 500.000000 500.000000"
 preserveAspectRatio="xMidYMid meet">

<g transform="translate(0.000000,500.000000) scale(0.100000,-0.100000)"
fill="#000000" stroke="none">
<path d="M2855 3910 c-4 -6 -5 -27 -3 -48 l3 -37 -103 -3 -102 -3 0 -44 0 -45
50 0 50 0 0 -55 0 -56 -57 3 c-55 3 -58 4 -55 27 2 13 1 34 -2 47 -5 20 -13
24 -45 24 l-39 0 -7 -95 -7 -95 -48 0 -49 0 -3 43 -3 42 -42 0 c-24 0 -43 -3
-43 -7 0 -5 0 -26 0 -48 l0 -40 40 0 40 0 0 -50 0 -50 -45 0 -45 0 0 50 0 51
-102 -3 -103 -3 -3 -97 -3 -96 -49 -4 -50 -3 0 48 0 47 -55 0 -55 0 0 -44 0
-44 -100 -7 -100 -7 0 -49 0 -49 -50 0 -50 0 0 -49 0 -50 -47 -3 -48 -3 -3
-47 -3 -48 50 0 51 0 0 -50 0 -50 50 0 50 0 0 -49 0 -50 52 -3 c45 -3 53 -6
54 -23 0 -11 1 -35 2 -52 l2 -33 100 0 100 0 0 -50 0 -50 50 0 50 0 0 50 0 50
100 0 100 0 0 55 0 55 50 0 50 0 0 50 0 50 60 0 60 0 0 -155 0 -155 44 0 45 0
3 53 3 52 48 3 47 3 0 50 0 49 100 0 100 0 0 45 0 45 -100 0 -101 0 3 55 c2
30 6 55 11 55 4 0 50 0 102 0 l95 0 0 -50 0 -50 50 0 50 0 0 50 0 50 100 0
100 0 0 50 0 50 -100 0 -100 0 0 105 0 105 -100 0 -100 0 0 -55 0 -55 50 0 50
0 0 -49 0 -50 -97 -3 c-54 -2 -124 -2 -155 0 l-58 3 0 49 0 50 50 0 50 0 0 55
0 55 -50 0 -50 0 0 50 0 50 -45 0 -45 0 0 50 0 50 150 0 150 0 0 -50 0 -50 50
0 50 0 0 50 0 50 50 0 50 0 0 50 0 50 50 0 50 0 0 -45 0 -45 50 0 50 0 0 95 0
95 -100 0 -100 0 0 100 0 100 -94 0 c-54 0 -98 -4 -101 -10z m-515 -545 l0
-45 -55 0 -55 0 0 45 0 45 55 0 55 0 0 -45z m200 -95 l0 -50 -50 0 -50 0 0 43
c0 24 3 47 7 50 3 4 26 7 50 7 l43 0 0 -50z m-510 -110 l0 -50 -50 0 -50 0 0
50 0 50 50 0 50 0 0 -50z m200 0 l0 -50 -50 0 -50 0 0 50 0 50 50 0 50 0 0
-50z m200 0 l0 -50 -45 0 -45 0 0 50 0 50 45 0 45 0 0 -50z m0 -200 l0 -50
-95 0 -95 0 0 50 0 50 95 0 95 0 0 -50z"/>
<path d="M3060 2855 l0 -45 45 0 45 0 0 45 0 45 -45 0 -45 0 0 -45z"/>
<path d="M2340 2650 l0 -50 45 0 45 0 0 50 0 50 -45 0 -45 0 0 -50z"/>
<path d="M2750 2650 l0 -50 95 0 95 0 0 50 0 50 -95 0 -95 0 0 -50z"/>
<path d="M2130 2545 l0 -45 50 0 50 0 0 45 0 45 -50 0 -50 0 0 -45z"/>
</g>
</svg>
